<?xml version="1.0" encoding="UTF-8"?>
<svg xmlns="http://www.w3.org/2000/svg" width="128" height="128" viewBox="0 0 128 128">
  <defs>
    <!-- Vibrant orange-pink-purple gradient -->
    <linearGradient id="bgGrad" x1="0" y1="0" x2="1" y2="1">
      <stop offset="0%" stop-color="#f97316"/>
      <stop offset="45%" stop-color="#e1306c"/>
      <stop offset="100%" stop-color="#7c3aed"/>
    </linearGradient>
    <!-- Tusk gradient (warm ivory) -->
    <linearGradient id="tuskGrad" x1="0" y1="0" x2="0" y2="1">
      <stop offset="0%" stop-color="#ffffff"/>
      <stop offset="100%" stop-color="#e8ddd0"/>
    </linearGradient>
  </defs>

  <!-- GNOME-style rounded square background -->
  <rect x="4" y="4" width="120" height="120" rx="28" ry="28" fill="url(#bgGrad)"/>

  <!-- Subtle glow spots -->
  <circle cx="28" cy="30" r="35" fill="#ffffff" opacity="0.06"/>
  <circle cx="100" cy="98" r="28" fill="#ffffff" opacity="0.04"/>

  <!-- Walrus body — white/near-white, stylized -->
  <ellipse cx="64" cy="74" rx="34" ry="28" fill="#f0f0f0" opacity="0.95"/>

  <!-- Walrus head -->
  <ellipse cx="64" cy="52" rx="28" ry="22" fill="#f5f5f5"/>

  <!-- Snout / muzzle area -->
  <ellipse cx="64" cy="60" rx="18" ry="12" fill="#ffffff"/>

  <!-- Whisker dots (left side) — subtle gray -->
  <circle cx="50" cy="57" r="2" fill="#c8c0b8"/>
  <circle cx="47" cy="61" r="2" fill="#c8c0b8"/>
  <circle cx="50" cy="65" r="2" fill="#c8c0b8"/>

  <!-- Whisker dots (right side) -->
  <circle cx="78" cy="57" r="2" fill="#c8c0b8"/>
  <circle cx="81" cy="61" r="2" fill="#c8c0b8"/>
  <circle cx="78" cy="65" r="2" fill="#c8c0b8"/>

  <!-- Nose -->
  <ellipse cx="64" cy="56" rx="5" ry="3.5" fill="#a09088"/>

  <!-- Eyes — dark for contrast -->
  <circle cx="52" cy="47" r="4.5" fill="#1a1a2e"/>
  <circle cx="76" cy="47" r="4.5" fill="#1a1a2e"/>
  <!-- Eye highlights -->
  <circle cx="53.5" cy="45.5" r="1.8" fill="#ffffff" opacity="0.9"/>
  <circle cx="77.5" cy="45.5" r="1.8" fill="#ffffff" opacity="0.9"/>

  <!-- Left tusk -->
  <path d="M 54 64 Q 52 80, 50 90 Q 49 94, 52 93 Q 56 91, 57 80 Q 58 72, 57 64 Z" fill="url(#tuskGrad)" stroke="#8a7e6a" stroke-width="1"/>

  <!-- Right tusk -->
  <path d="M 74 64 Q 76 80, 78 90 Q 79 94, 76 93 Q 72 91, 71 80 Q 70 72, 71 64 Z" fill="url(#tuskGrad)" stroke="#8a7e6a" stroke-width="1"/>

  <!-- Flippers — light gray -->
  <ellipse cx="36" cy="86" rx="10" ry="6" fill="#d8d8d8" transform="rotate(-20 36 86)"/>
  <ellipse cx="92" cy="86" rx="10" ry="6" fill="#d8d8d8" transform="rotate(20 92 86)"/>
</svg>
